# xmcd
#
# Track frame offsets:
#	150
#	13234
#	26237
#	39077
#	51968
#	65077
#	78690
#	92029
#	105690
#	120266
#	134179
#	146497
#	159449
#	173794
#	187040
#
# Disc length: 2674 seconds
#
# Revision: 0
# Processed by: cddbd v1.5.2PL0 Copyright (c) Steve Scherf et al.
# Submitted via: EasyCDDAExtractor 12.0.7.1
#
DISCID=d40a700f
DTITLE=Various Artist - Grand Prix der Vilksmusik - Vorentscheidung Österreic
DTITLE=h 2910
DYEAR=2010
DGENRE=Volksmusik
TTITLE0=Die Edlseer - Hallelua
TTITLE1=Marco Ventre - Sehnsucht war Gestern
TTITLE2=Leona and Swen - Diese Welt ist wunderschön
TTITLE3=Die Grubertaler - Wenn, dann jetzt
TTITLE4=Marlena Martinelli - Komm doch verführ mich
TTITLE5=Mosaik - Auf amal wird's hell
TTITLE6=Die Jungen Paldauer - A Bass, a Gitarr' und a Ziehamonika
TTITLE7=Manuel Berger - Sag zu mir I Love you
TTITLE8=Die Wörtherseer - Komm Tanzen, Mi Amor
TTITLE9=Sunnawend - De Liab is a Traman
TTITLE10=Hiatamadln - Flotte Buama braucht das Land
TTITLE11=Hannah - Magst mi eh
TTITLE12=Joe Gevira mit die Schmidinger - 's Binkerl
TTITLE13=Renate - A neues Leben
TTITLE14=Leona Anderson - Bitte gib gut auf mich acht
EXTD=
EXTT0=
EXTT1=
EXTT2=
EXTT3=
EXTT4=
EXTT5=
EXTT6=
EXTT7=
EXTT8=
EXTT9=
EXTT10=
EXTT11=
EXTT12=
EXTT13=
EXTT14=
PLAYORDER=
